<?xml version="1.0" encoding="UTF-8"?>
<svg xmlns="http://www.w3.org/2000/svg" width="296" height="200" viewBox="0 0 296 200" fill="none">
  <g clip-path="url(#clip0)">
    <path d="M107.652 121.601C104.156 118.105 104.084 112.873 107.628 109.329C111.124 105.833 116.357 105.881 119.853 109.377C123.349 112.873 123.397 118.105 119.901 121.601C116.357 125.193 111.172 125.121 107.652 121.601ZM117.046 112.231C115.025 110.209 112.1 110.114 110.244 111.969C108.342 113.872 108.461 116.773 110.482 118.795C112.504 120.817 115.405 120.936 117.308 119.033C119.187 117.154 119.068 114.252 117.046 112.231Z" fill="#030000"></path>
    <path d="M131.84 109.712C129.01 112.542 125.608 112.423 123.183 109.973L125.823 107.333C126.964 108.475 128.344 108.594 129.628 107.309C130.389 106.548 130.674 105.502 129.913 104.741C129.105 103.932 127.797 104.289 125.965 105.121C123.706 106.049 120.947 107.072 118.973 105.098C116.713 102.838 117.189 99.8176 119.425 97.582C122.041 94.9658 125.228 95.1561 127.25 97.1777L124.752 99.6511C123.872 98.9139 122.731 98.8425 121.708 99.8652C120.947 100.626 120.828 101.53 121.47 102.196C122.112 102.838 122.969 102.577 124.776 101.815C127.892 100.579 130.532 99.8652 132.72 102.029C135.003 104.289 134.337 107.238 131.84 109.712Z" fill="#030000"></path>
    <path d="M140.115 89.1136C136.619 85.6174 136.548 80.385 140.092 76.8413C143.588 73.3451 148.82 73.3927 152.316 76.8888C155.813 80.385 155.86 85.6174 152.364 89.1136C148.82 92.7049 143.612 92.6097 140.115 89.1136ZM149.51 79.7191C147.488 77.6975 144.563 77.6023 142.708 79.4575C140.805 81.3601 140.924 84.2617 142.946 86.2833C144.967 88.3049 147.869 88.4238 149.772 86.5212C151.65 84.666 151.532 81.7645 149.51 79.7191Z" fill="#030000"></path>
    <path d="M142.329 93.6084L144.921 96.2008L138.143 102.979L126.275 91.1112L128.915 88.4712L138.166 97.723L142.329 93.6084Z" fill="#030000"></path>
    <path d="M189.277 119.011L186.638 116.371L177.433 125.576L174.746 122.888L183.95 113.684L181.31 111.044L183.76 108.594L191.751 116.585L189.277 119.011Z" fill="#030000"></path>
    <path d="M172.723 116.012L170.274 118.462L163.329 111.517L175.007 99.8392L181.951 106.784L179.502 109.234L175.173 104.905L173.033 107.046L176.957 110.97L174.626 113.301L170.702 109.376L168.395 111.683L172.723 116.012Z" fill="#030000"></path>
    <path d="M161.164 109.355L158.548 106.739L164.97 100.27L156.289 104.479L153.886 102.077L158.096 93.3249L151.627 99.8178L149.011 97.2016L160.689 85.5239L164.161 88.9963L158.833 99.5324L169.322 94.1336L172.818 97.6297L161.164 109.355Z" fill="#030000"></path>
  </g>
  <defs>
    <clipPath id="clip0">
      <rect width="296" height="200" fill="white"></rect>
    </clipPath>
  </defs>
</svg>
